<svg id="Слой_1" data-name="Слой 1" xmlns="http://www.w3.org/2000/svg" viewBox="0 0 20 20"><defs><style>.cls-1{fill:#5e636e;}</style></defs><path class="cls-1" d="M10,19.17A9.17,9.17,0,1,1,19.17,10,9.19,9.19,0,0,1,10,19.17ZM10,2.5A7.5,7.5,0,1,0,17.5,10,7.5,7.5,0,0,0,10,2.5Z"/><path class="cls-1" d="M10,8.18a.85.85,0,0,1-.84-.84A.83.83,0,0,1,10,6.51h0a.83.83,0,0,1,.83.83A.84.84,0,0,1,10,8.18Z"/><path class="cls-1" d="M10,14.14a.83.83,0,0,1-.83-.83V10a.83.83,0,1,1,1.66,0v3.33A.83.83,0,0,1,10,14.14Z"/></svg>