<svg id="Слой_1" data-name="Слой 1" xmlns="http://www.w3.org/2000/svg" viewBox="0 0 19.83 13.64"><defs><style>.cls-1{fill:#ea4335;fill-rule:evenodd;}.cls-2{fill:#fbbc04;}.cls-3{fill:#34a853;}.cls-4{fill:#4285f4;}.cls-5{fill:#c5221f;}</style></defs><path class="cls-1" d="M5.55,6.64V1.91L9.92,5.18l4.36-3.27V6.64L9.92,9.91Z"/><path class="cls-2" d="M14.28,1.91V6.64l3.64-2.73V2.46A1.64,1.64,0,0,0,15.3,1.15Z"/><path class="cls-3" d="M14.28,12.81h2.54a1.09,1.09,0,0,0,1.1-1.09V3.9L14.28,6.63Z"/><path class="cls-4" d="M3,12.82H5.55V6.64L1.92,3.91v7.82A1.09,1.09,0,0,0,3,12.82Z"/><path class="cls-5" d="M1.92,2.46V3.91L5.55,6.64V1.91l-1-.76A1.63,1.63,0,0,0,1.92,2.46Z"/></svg>