<svg id="Слой_1" data-name="Слой 1" xmlns="http://www.w3.org/2000/svg" viewBox="0 0 18.79 18.69"><defs><style>.cls-1{fill:#4285f4;}.cls-2{fill:#34a853;}.cls-3{fill:#fbbc04;}.cls-4{fill:#ea4335;}</style></defs><path class="cls-1" d="M18.17,9.58A11.2,11.2,0,0,0,18,7.75H9.53v3.46h4.86A4.17,4.17,0,0,1,12.59,14V16.2h2.9A8.8,8.8,0,0,0,18.17,9.58Z"/><path class="cls-2" d="M9.61,18.32a8.66,8.66,0,0,0,6-2.17L12.67,13.9A5.45,5.45,0,0,1,4.56,11h-3v2.32A9,9,0,0,0,9.61,18.32Z"/><path class="cls-3" d="M4.56,11.05a5.47,5.47,0,0,1,0-3.44V5.29h-3a9,9,0,0,0,0,8.08Z"/><path class="cls-4" d="M9.59,3.94a4.88,4.88,0,0,1,3.46,1.35l2.57-2.57a8.64,8.64,0,0,0-6-2.34,9,9,0,0,0-8,5l3,2.32A5.38,5.38,0,0,1,9.59,3.94Z"/></svg>