<svg width="16" height="13" viewBox="0 0 16 13" fill="none" xmlns="http://www.w3.org/2000/svg">
<path d="M6.59935 1.32676C7.05824 1.21935 7.52806 1.16566 7.99935 1.16676C12.666 1.16676 15.3327 6.5001 15.3327 6.5001C14.928 7.25717 14.4454 7.96992 13.8927 8.62676M9.41268 7.91343C9.22958 8.10993 9.00878 8.26754 8.76345 8.37685C8.51812 8.48616 8.25328 8.54494 7.98474 8.54968C7.7162 8.55441 7.44946 8.50501 7.20042 8.40443C6.95139 8.30384 6.72516 8.15412 6.53525 7.9642C6.34533 7.77428 6.19561 7.54806 6.09502 7.29902C5.99443 7.04999 5.94503 6.78325 5.94977 6.5147C5.95451 6.24616 6.01329 5.98133 6.1226 5.736C6.23191 5.49067 6.38952 5.26986 6.58602 5.08677M11.9593 10.4601C10.8197 11.3288 9.43209 11.81 7.99935 11.8334C3.33268 11.8334 0.666016 6.5001 0.666016 6.5001C1.49528 4.9547 2.64544 3.6045 4.03935 2.5401L11.9593 10.4601Z" stroke="#4F637D" stroke-width="1.33" stroke-linecap="round" stroke-linejoin="round"/>
</svg>
