<svg id="Слой_1" data-name="Слой 1" xmlns="http://www.w3.org/2000/svg" viewBox="0 0 17.34 16.48"><defs><style>.cls-1{fill:#4f637d;}</style></defs><path class="cls-1" d="M8.76,14.49c-5,0-7.82-5.46-7.94-5.7a.69.69,0,0,1,0-.61A12.87,12.87,0,0,1,4.39,4a.66.66,0,0,1,.87.06l5.35,5.35h0l0,0L13.18,12a.61.61,0,0,1,.19.51.62.62,0,0,1-.26.48A7.22,7.22,0,0,1,8.76,14.49Zm-6.58-6c.62,1.07,3,4.66,6.57,4.66a5.89,5.89,0,0,0,2.92-.81L10.12,10.8,9.79,11a2.67,2.67,0,0,1-1,.23,2.91,2.91,0,0,1-1-.19,2.78,2.78,0,0,1-.88-.59,2.43,2.43,0,0,1-.59-.89A2.46,2.46,0,0,1,6,8.5a2.5,2.5,0,0,1,.23-1,3.41,3.41,0,0,1,.17-.33l-1.7-1.7A11.45,11.45,0,0,0,2.18,8.5Zm5.25-.38a1.34,1.34,0,0,0-.06.4,1.21,1.21,0,0,0,.09.53,1.43,1.43,0,0,0,.3.44,1.09,1.09,0,0,0,.44.29,1.41,1.41,0,0,0,.52.1,1.14,1.14,0,0,0,.41-.07Zm7.21,3.17a.61.61,0,0,1-.42-.16.65.65,0,0,1-.09-.93,11,11,0,0,0,1.19-1.7c-.62-1.08-3-4.67-6.57-4.67A5.27,5.27,0,0,0,7.5,4a.67.67,0,0,1-.8-.5.66.66,0,0,1,.5-.79A6.64,6.64,0,0,1,8.75,2.5c5,0,7.81,5.47,7.93,5.7a.66.66,0,0,1,0,.61,13.18,13.18,0,0,1-1.52,2.24A.65.65,0,0,1,14.64,11.29Z"/><path class="cls-1" d="M15.92,16.3a.66.66,0,0,1-.47-.19L.78,1.44A.66.66,0,0,1,1.72.5L16.39,15.17a.66.66,0,0,1-.47,1.13Z"/></svg>