<svg id="Слой_1" data-name="Слой 1" xmlns="http://www.w3.org/2000/svg" viewBox="0 0 25 25"><defs><style>.cls-1{fill:#32abf2;}.cls-2{fill:#34056f;}.cls-3{fill:#f9f9f9;}.cls-4{fill:#eb5a55;}.cls-5{fill:#79292a;}</style></defs><path class="cls-1" d="M10,16a3.81,3.81,0,0,0-1.84,1.25,4.93,4.93,0,0,0-.3.66,5.46,5.46,0,0,1-1.24,1.66c-.62.4-1.18.48-1.49,1.1a1.37,1.37,0,0,0-.13.79,1.33,1.33,0,0,0,.85,1c.9.39,4.09,0,5.88-2.17a3.65,3.65,0,0,0,.84-2A2.08,2.08,0,0,0,10,16Z"/><path class="cls-1" d="M5.5,13.21c-.24-.33-.45-.64-.61-.88l-.15-.25a2.58,2.58,0,0,0-.65.25,2.2,2.2,0,0,1-1.55.32c-.36-.13-1.15-.49-1.71-.09A1.31,1.31,0,0,0,.4,14.24a3.84,3.84,0,0,0,1.73,1.5A3.66,3.66,0,0,0,6,14.81C7.75,13.27,6.28,13.19,5.5,13.21Z"/><path class="cls-1" d="M12.5,18.82a8.25,8.25,0,1,0-8.24-8.25A8.25,8.25,0,0,0,12.5,18.82Z"/><path class="cls-1" d="M14.9,15.55a3.72,3.72,0,0,1,1.82,1.35,4.45,4.45,0,0,1,.3.71,6.11,6.11,0,0,0,1.23,1.79c.61.43,1.17.52,1.47,1.19a1.54,1.54,0,0,1,.13.84A1.39,1.39,0,0,1,19,22.52c-.88.42-4,0-5.81-2.34A3.93,3.93,0,0,1,12.36,18,2.13,2.13,0,0,1,14.9,15.55Z"/><path class="cls-1" d="M17.12,16.35a.62.62,0,0,1-.08-.12,1.61,1.61,0,0,1-.12-.23c.62-.39,1.5-1.09,1.54-1.12l.06,0h0l.17-.14.38.11A4.16,4.16,0,0,1,20.64,16c.12.12.22.24.31.32a4.65,4.65,0,0,0,1.29.87l.15.09A1.54,1.54,0,0,1,23.13,19a1.62,1.62,0,0,1-1.71,1.18A5.8,5.8,0,0,1,19,19.38a7.85,7.85,0,0,1-2.45-2.52Z"/><path class="cls-1" d="M19.57,13.22c.24-.32.45-.63.6-.87l.15-.25a3.61,3.61,0,0,1,.64.25,2.17,2.17,0,0,0,1.54.32c.35-.13,1.13-.48,1.68-.09a1.28,1.28,0,0,1,.42,1.65,3.75,3.75,0,0,1-1.71,1.48,3.58,3.58,0,0,1-3.79-.91C17.35,13.28,18.8,13.2,19.57,13.22Z"/><path class="cls-2" d="M9.63,11.14a.83.83,0,0,0,.72-.91.84.84,0,0,0-.72-.92.84.84,0,0,0-.72.92A.83.83,0,0,0,9.63,11.14Z"/><path class="cls-2" d="M15.38,11.14a.83.83,0,0,0,.72-.91.84.84,0,0,0-.72-.92.84.84,0,0,0-.71.92A.83.83,0,0,0,15.38,11.14Z"/><path class="cls-3" d="M10,9.82a.35.35,0,0,1-.35.34.35.35,0,1,1,0-.69A.35.35,0,0,1,10,9.82Z"/><path class="cls-3" d="M15.65,9.82a.35.35,0,1,1-.35-.35A.35.35,0,0,1,15.65,9.82Z"/><path class="cls-4" d="M13.85,13.1c-.07.83-.35,1.9-1.35,1.9a1.11,1.11,0,0,1-1-.62A2.16,2.16,0,0,1,13.85,13.1Z"/><path class="cls-5" d="M13.85,13.09a2.17,2.17,0,0,0-2.36,1.29,4.78,4.78,0,0,1-.33-2.28,4.19,4.19,0,0,0,1.34.14,4.25,4.25,0,0,0,1.35-.14A5.45,5.45,0,0,1,13.85,13.09Z"/><path class="cls-1" d="M8,16.29l.08-.12a2.68,2.68,0,0,0,.12-.24,18.41,18.41,0,0,1-1.57-1.14l-.06,0h0l-.17-.14a3.44,3.44,0,0,0-.38.11,4.17,4.17,0,0,0-1.61,1.17l-.31.33a4.71,4.71,0,0,1-1.32.88l-.15.09a1.55,1.55,0,0,0-.74,1.75,1.64,1.64,0,0,0,1.73,1.2,6,6,0,0,0,2.47-.76A8.05,8.05,0,0,0,8.56,16.8Z"/></svg>