<?xml version="1.0" encoding="utf-8"?>
<!-- Generator: Adobe Illustrator 25.3.1, SVG Export Plug-In . SVG Version: 6.00 Build 0)  -->
<svg version="1.1" id="Слой_1" xmlns="http://www.w3.org/2000/svg" xmlns:xlink="http://www.w3.org/1999/xlink" x="0px" y="0px"
	 viewBox="0 0 16 13" style="enable-background:new 0 0 16 13;" xml:space="preserve">
<style type="text/css">
	.st0{fill:#4F637D;}
</style>
<g>
	<path class="st0" d="M8,12.5c-5,0-7.8-5.5-7.9-5.7C0,6.6,0,6.4,0.1,6.2C0.2,6,3,0.5,8,0.5c5,0,7.8,5.5,7.9,5.7
		c0.1,0.2,0.1,0.4,0,0.6C15.8,7,13,12.5,8,12.5z M1.4,6.5c0.6,1.1,3,4.7,6.6,4.7s5.9-3.6,6.6-4.7c-0.6-1.1-3-4.7-6.6-4.7
		C4.4,1.8,2,5.4,1.4,6.5z"/>
	<path class="st0" d="M8,9.2C6.5,9.2,5.3,8,5.3,6.5S6.5,3.8,8,3.8s2.7,1.2,2.7,2.7S9.5,9.2,8,9.2z M8,5.2c-0.7,0-1.3,0.6-1.3,1.3
		S7.3,7.8,8,7.8s1.3-0.6,1.3-1.3S8.7,5.2,8,5.2z"/>
</g>
</svg>
